<svg version="1.1" viewBox="0.0 0.0 256.0 256.0" fill="none" stroke="none" stroke-linecap="square" stroke-miterlimit="10" xmlns:xlink="http://www.w3.org/1999/xlink" xmlns="http://www.w3.org/2000/svg"><clipPath id="p.0"><path d="m0 0l256.0 0l0 256.0l-256.0 0l0 -256.0z" clip-rule="nonzero"/></clipPath><g clip-path="url(#p.0)"><defs><linearGradient id="p.1" gradientUnits="userSpaceOnUse" gradientTransform="matrix(16.00002895994655 0.0 0.0 16.00002895994655 0.0 0.0)" spreadMethod="pad" x1="2.0966886484626874E-10" y1="-5.791973584830732E-5" x2="-5.791973584830732E-5" y2="15.999971040105867"><stop offset="0.0" stop-color="#041336"/><stop offset="1.0" stop-color="#072364"/></linearGradient></defs><path fill="url(#p.1)" d="m0 0l256.0 0l0 256.0l-256.0 0z" fill-rule="evenodd"/><path fill="#ffffff" d="m73.82622 79.58239l0 0c-1.0660553 -8.204208 2.434021 -16.32587 9.014999 -20.918674c6.580986 -4.592804 15.088722 -4.851265 21.91307 -0.66571426l0 0c2.417389 -4.7702675 6.841919 -8.063805 11.935257 -8.884384c5.093338 -0.82058334 10.257248 0.92817307 13.929749 4.717304l0 0c2.0592957 -4.3250275 6.102783 -7.230896 10.695602 -7.686447c4.5928345 -0.45555115 9.084991 1.6036797 11.882446 5.4469795l0 0c3.7204437 -4.5845184 9.639755 -6.5147934 15.1966095 -4.9555817c5.5568695 1.5592155 9.75322 6.3278656 10.773285 12.242531l0 0c4.5581665 1.3020248 8.355026 4.6119385 10.409576 9.07457c2.0545654 4.462631 2.1652832 9.640205 0.30355835 14.195l0 0c4.4884644 6.117584 5.5384216 14.269196 2.7580566 21.412796c-2.780365 7.1436005 -8.973328 12.20594 -16.267807 13.297852c-0.05142212 6.704521 -3.5625916 12.856514 -9.180176 16.084724c-5.617584 3.2282104 -12.464371 3.0285492 -17.901306 -0.5220337c-2.3158417 8.029831 -8.8341675 13.938095 -16.73883 15.172226c-7.9046555 1.2341156 -15.778572 -2.4271545 -20.219925 -9.402008c-5.444168 3.4379272 -11.976723 4.4282837 -18.124039 2.7476807c-6.1473236 -1.6806183 -11.391594 -5.8906403 -14.549812 -11.680374l0 0c-5.5632553 0.68174744 -10.942162 -2.3366852 -13.467178 -7.557274c-2.525013 -5.2205887 -1.6586227 -11.53199 2.1691742 -15.80188l0 0c-4.9625664 -3.0587463 -7.49477 -9.128311 -6.276161 -15.043655c1.2186089 -5.915352 5.911888 -10.336037 11.632477 -10.956848z" fill-rule="evenodd"/><path fill="#000000" fill-opacity="0.0" d="m68.35993 105.89909l0 0c2.341858 1.4434357 5.047241 2.0982056 7.7529297 1.8764114m3.5438614 21.483269c1.1635437 -0.14259338 2.3040314 -0.44454956 3.392067 -0.89805603m29.280151 9.830383c-0.8183594 -1.2851868 -1.5035324 -2.6585083 -2.0438385 -4.096588m39.004005 -1.6738739l0 0c0.4222107 -1.4639587 0.69577026 -2.9706879 0.81611633 -4.495056m26.264343 -11.067078c0.054733276 -7.1380005 -3.8166962 -13.673622 -9.9513855 -16.79963m23.460999 -17.91027c-0.9934845 2.430626 -2.5101776 4.5867996 -4.431122 6.2994614m-6.281082 -29.569664l0 0c0.169281 0.9815407 0.24761963 1.9778366 0.23394775 2.975071m-26.203384 -10.261723l0 0c-0.92807007 1.1436081 -1.6926727 2.4215775 -2.2700043 3.7941132m-20.308273 -1.5551453l0 0c-0.49456787 1.0387306 -0.8638916 2.1378899 -1.0994415 3.272152m-24.765938 0.8950119l0 0c1.4440308 0.8856621 2.779953 1.9516487 3.9784164 3.1745453m-34.906082 18.409962l0 0c0.14693451 1.1307526 0.37908936 2.2475662 0.6942978 3.339981" fill-rule="evenodd"/><path stroke="#efefef" stroke-width="3.0" stroke-linejoin="round" stroke-linecap="butt" d="m73.82622 79.58239l0 0c-1.0660553 -8.204208 2.434021 -16.32587 9.014999 -20.918674c6.580986 -4.592804 15.088722 -4.851265 21.91307 -0.66571426l0 0c2.417389 -4.7702675 6.841919 -8.063805 11.935257 -8.884384c5.093338 -0.82058334 10.257248 0.92817307 13.929749 4.717304l0 0c2.0592957 -4.3250275 6.102783 -7.230896 10.695602 -7.686447c4.5928345 -0.45555115 9.084991 1.6036797 11.882446 5.4469795l0 0c3.7204437 -4.5845184 9.639755 -6.5147934 15.1966095 -4.9555817c5.5568695 1.5592155 9.75322 6.3278656 10.773285 12.242531l0 0c4.5581665 1.3020248 8.355026 4.6119385 10.409576 9.07457c2.0545654 4.462631 2.1652832 9.640205 0.30355835 14.195l0 0c4.4884644 6.117584 5.5384216 14.269196 2.7580566 21.412796c-2.780365 7.1436005 -8.973328 12.20594 -16.267807 13.297852c-0.05142212 6.704521 -3.5625916 12.856514 -9.180176 16.084724c-5.617584 3.2282104 -12.464371 3.0285492 -17.901306 -0.5220337c-2.3158417 8.029831 -8.8341675 13.938095 -16.73883 15.172226c-7.9046555 1.2341156 -15.778572 -2.4271545 -20.219925 -9.402008c-5.444168 3.4379272 -11.976723 4.4282837 -18.124039 2.7476807c-6.1473236 -1.6806183 -11.391594 -5.8906403 -14.549812 -11.680374l0 0c-5.5632553 0.68174744 -10.942162 -2.3366852 -13.467178 -7.557274c-2.525013 -5.2205887 -1.6586227 -11.53199 2.1691742 -15.80188l0 0c-4.9625664 -3.0587463 -7.49477 -9.128311 -6.276161 -15.043655c1.2186089 -5.915352 5.911888 -10.336037 11.632477 -10.956848z" fill-rule="evenodd"/><path stroke="#efefef" stroke-width="3.0" stroke-linejoin="round" stroke-linecap="butt" d="m68.35993 105.89909l0 0c2.341858 1.4434357 5.047241 2.0982056 7.7529297 1.8764114m3.5438614 21.483269c1.1635437 -0.14259338 2.3040314 -0.44454956 3.392067 -0.89805603m29.280151 9.830383c-0.8183594 -1.2851868 -1.5035324 -2.6585083 -2.0438385 -4.096588m39.004005 -1.6738739l0 0c0.4222107 -1.4639587 0.69577026 -2.9706879 0.81611633 -4.495056m26.264343 -11.067078c0.054733276 -7.1380005 -3.8166962 -13.673622 -9.9513855 -16.79963m23.460999 -17.91027c-0.9934845 2.430626 -2.5101776 4.5867996 -4.431122 6.2994614m-6.281082 -29.569664l0 0c0.169281 0.9815407 0.24761963 1.9778366 0.23394775 2.975071m-26.203384 -10.261723l0 0c-0.92807007 1.1436081 -1.6926727 2.4215775 -2.2700043 3.7941132m-20.308273 -1.5551453l0 0c-0.49456787 1.0387306 -0.8638916 2.1378899 -1.0994415 3.272152m-24.765938 0.8950119l0 0c1.4440308 0.8856621 2.779953 1.9516487 3.9784164 3.1745453m-34.906082 18.409962l0 0c0.14693451 1.1307526 0.37908936 2.2475662 0.6942978 3.339981" fill-rule="evenodd"/><path fill="#ffffff" d="m73.84289 187.06294c-2.876152 0 -5.5126266 0.6572571 -7.9094315 1.9717407c-2.3918571 1.309555 -4.2376366 3.229416 -5.537342 5.7595673c-1.2947655 2.5252075 -1.9421463 5.4852905 -1.9421463 8.880249c0 3.1132812 0.57325363 6.026413 1.7197647 8.73941c1.1514473 2.7129974 2.8267365 4.7860413 5.02586 6.2191467c2.204071 1.4281464 5.0629272 2.1422272 8.576584 2.1422272c3.39505 0 6.266266 -0.92904663 8.613647 -2.7871246c2.3523178 -1.8630219 3.9806595 -4.566147 4.8850174 -8.1093445l-4.314232 -1.0896454c-0.5930252 2.7426453 -1.7271805 4.8107452 -3.4024658 6.204315c-1.675293 1.3935547 -3.7212143 2.0903473 -6.137779 2.0903473c-1.9866257 0 -3.832405 -0.5114746 -5.537346 -1.5344086c-1.7049408 -1.022934 -2.9626389 -2.567215 -3.7731018 -4.632843c-0.8055229 -2.0705872 -1.2082825 -4.4920197 -1.2082825 -7.2643127c0 -2.149643 0.34098816 -4.2350464 1.0229645 -6.2562103c0.6819763 -2.0260925 1.8630753 -3.6395721 3.5433044 -4.840393c1.685173 -1.2008362 3.7805176 -1.8012543 6.2860336 -1.8012543c2.1793594 0 3.9880753 0.5411072 5.426155 1.623352c1.4380798 1.0822296 2.5351639 2.8093567 3.2912674 5.181381l4.2475204 -1.0007019c-0.87470245 -3.0095062 -2.423973 -5.344452 -4.6478043 -7.0048676c-2.2238388 -1.6604156 -4.9665604 -2.490631 -8.228188 -2.490631z" fill-rule="evenodd"/><path fill="#ffffff" d="m91.989365 187.6189l0 32.60045l4.002899 0l0 -32.60045z" fill-rule="evenodd"/><path fill="#ffffff" d="m111.78148 199.38263c1.9718018 0 3.6199036 0.7536011 4.9443207 2.2608337c1.329361 1.5022736 1.9940414 3.713684 1.9940414 6.6342316c0 3.098465 -0.65974426 5.403763 -1.9792175 6.915924c-1.3194733 1.5121613 -2.972519 2.2682495 -4.9591446 2.2682495c-2.0014496 0 -3.661911 -0.7511444 -4.9813843 -2.253418c-1.3194733 -1.5072327 -1.9792099 -3.772995 -1.9792099 -6.7973175c0 -3.0243378 0.65973663 -5.2851562 1.9792099 -6.782501c1.3194733 -1.4973297 2.9799347 -2.2460022 4.9813843 -2.2460022zm0 -3.3134155c-2.9206314 0 -5.3964996 0.87467957 -7.4276047 2.6240387c-2.4313889 2.1051788 -3.6470795 5.344467 -3.6470795 9.71788c0 3.9879608 1.0180206 7.041931 3.054062 9.161926c2.040985 2.119995 4.7145233 3.1799774 8.020622 3.1799774c2.0607529 0 3.9608917 -0.48181152 5.700424 -1.4454346c1.7444763 -0.9636383 3.0713577 -2.3152008 3.9806595 -4.0546722c0.9142456 -1.7444305 1.3713684 -4.136215 1.3713684 -7.1753693c0 -3.7507477 -1.0303802 -6.6885986 -3.091133 -8.813538c-2.0607529 -2.1298676 -4.7145233 -3.194809 -7.961319 -3.194809z" fill-rule="evenodd"/><path fill="#ffffff" d="m127.43726 196.60292l0 14.6324005c0 1.7048798 0.08153534 2.9501953 0.24462128 3.7359314c0.2372055 1.1711731 0.64738464 2.1619873 1.2305145 2.9724274c0.588089 0.8054962 1.4850311 1.4750977 2.6908417 2.0088043c1.2107544 0.53370667 2.5129395 0.80055237 3.90654 0.80055237c3.157837 0 5.655945 -1.334259 7.4943085 -4.002777l0 3.4690857l3.580368 0l0 -23.616425l-4.002899 0l0 12.653244c0 2.0162048 -0.21990967 3.5555573 -0.659729 4.6180267c-0.43489075 1.0575256 -1.1786346 1.8951416 -2.231247 2.512848c-1.0526123 0.6127777 -2.1793518 0.91915894 -3.3802338 0.91915894c-1.2008667 0 -2.2089996 -0.29896545 -3.0243988 -0.8969116c-0.8154144 -0.60289 -1.3491364 -1.4306335 -1.6011658 -2.4832153c-0.16308594 -0.7264252 -0.2446289 -2.1348114 -0.2446289 -4.2251587l0 -13.097992z" fill-rule="evenodd"/><path fill="#ffffff" d="m161.77324 199.38263c1.8235474 0 3.3579865 0.756073 4.6033325 2.2682343c1.2453461 1.5121765 1.8680267 3.8841858 1.8680267 7.1160736c0 2.9353638 -0.61279297 5.1195984 -1.8383789 6.552704c-1.2206268 1.4281464 -2.705658 2.1422272 -4.455078 2.1422272c-1.7345886 0 -3.23938 -0.7486725 -4.514374 -2.2460022c-1.2749939 -1.497345 -1.9124908 -3.7581787 -1.9124908 -6.782501c0 -3.1280975 0.5954895 -5.418579 1.7864685 -6.8714447c1.1959381 -1.4528656 2.683426 -2.1792908 4.462494 -2.1792908zm6.137787 -11.763733l0 11.6970215c-0.69680786 -0.9636383 -1.6011658 -1.7444305 -2.713089 -2.3423767c-1.111908 -0.60289 -2.3795013 -0.9043274 -3.8027496 -0.9043274c-1.9421387 0 -3.6989746 0.51145935 -5.2704773 1.5343933c-1.571518 1.022934 -2.7501373 2.495575 -3.535904 4.4178925c-0.78575134 1.9173889 -1.1786194 4.0546722 -1.1786194 6.411865c0 2.4164886 0.43240356 4.556259 1.297226 6.419281c0.86976624 1.858078 2.0928802 3.3059998 3.6693268 4.3437653c1.5813904 1.0377502 3.313507 1.5566254 5.19635 1.5566254c2.9058075 0 5.1074066 -1.1711731 6.604782 -3.5135498l0 2.9798584l3.7138062 0l0 -32.60045z" fill-rule="evenodd"/><path fill="#ffffff" d="m175.91682 196.60292l8.962036 23.660889c-0.16307068 0.42993164 -0.28167725 0.75608826 -0.35580444 0.97846985c-0.56336975 1.5862885 -0.9710846 2.5795593 -1.223114 2.9798431c-0.34098816 0.53370667 -0.7783356 0.94880676 -1.3120575 1.2453156c-0.5337219 0.29649353 -1.2453461 0.44474792 -2.1348877 0.44474792c-0.65231323 0 -1.4158325 -0.11860657 -2.2905426 -0.35580444l0 0l0.44476318 3.7581787c0.9488373 0.32614136 1.8087158 0.4892273 2.5796509 0.4892273c1.2749939 0 2.3720856 -0.30885315 3.291275 -0.9265747c0.9191742 -0.6127777 1.7345886 -1.5788727 2.4462128 -2.8983154c0.5337219 -0.9784546 1.2824097 -2.7648773 2.2460632 -5.3592834l8.984283 -24.016693l-4.002884 0l-5.048111 13.765121c-0.63749695 1.7493744 -1.1860352 3.543213 -1.6456299 5.3815155c-0.5040741 -1.9124298 -1.0748596 -3.7359314 -1.7123566 -5.470459l-4.914673 -13.676178z" fill-rule="evenodd"/></g></svg>