<svg version="1.1" viewBox="0.0 0.0 256.0 256.0" fill="none" stroke="none" stroke-linecap="square" stroke-miterlimit="10" xmlns:xlink="http://www.w3.org/1999/xlink" xmlns="http://www.w3.org/2000/svg"><clipPath id="p.0"><path d="m0 0l256.0 0l0 256.0l-256.0 0l0 -256.0z" clip-rule="nonzero"/></clipPath><g clip-path="url(#p.0)"><defs><linearGradient id="p.1" gradientUnits="userSpaceOnUse" gradientTransform="matrix(16.00002895994655 0.0 0.0 16.00002895994655 0.0 0.0)" spreadMethod="pad" x1="2.0966886484626874E-10" y1="-5.791973584830732E-5" x2="-5.791973584830732E-5" y2="15.999971040105867"><stop offset="0.0" stop-color="#041336"/><stop offset="1.0" stop-color="#072364"/></linearGradient></defs><path fill="url(#p.1)" d="m0 0l256.0 0l0 256.0l-256.0 0z" fill-rule="evenodd"/><path fill="#ffffff" d="m86.40831 190.298c2.416565 0 4.183281 0.49664307 5.3001328 1.489914c1.1218033 0.99328613 1.6827011 2.2608337 1.6827011 3.802658c0 1.0525818 -0.28909302 2.0285645 -0.8672943 2.927948c-0.57819366 0.89445496 -1.4232483 1.5467682 -2.5351715 1.9569244c-1.1119156 0.4052124 -2.6537704 0.60783386 -4.625572 0.60783386l-9.273376 0l0 -10.785278zm-14.63282 -3.6025085l0 32.60045l4.3142395 0l0 -14.47673l5.003624 0c1.1119156 0 1.9124908 0.051879883 2.4017334 0.1556549c0.6671524 0.16308594 1.3219528 0.4521637 1.964386 0.86727905c0.64738464 0.4151001 1.3787766 1.1415253 2.1941833 2.1792908c0.8154068 1.0377502 1.8531952 2.5350952 3.1133652 4.4920044l4.3142395 6.782501l5.4261475 0l-5.6707687 -8.872833c-1.1267471 -1.7345428 -2.320198 -3.1799927 -3.5803757 -4.3363495c-0.5930176 -0.53370667 -1.4603119 -1.0748291 -2.601883 -1.623352c3.128189 -0.42993164 5.440979 -1.438034 6.938362 -3.0243225c1.4973755 -1.5862885 2.2460709 -3.535797 2.2460709 -5.8485107c0 -1.7938538 -0.45217896 -3.432022 -1.3565369 -4.9145355c-0.90436554 -1.4825134 -2.112648 -2.515335 -3.6248474 -3.0984497c-1.512207 -0.5880585 -3.7212143 -0.88209534 -6.627022 -0.88209534z" fill-rule="evenodd"/><path fill="#ffffff" d="m119.16537 207.44325l0 1.4676971c0 1.7641907 -0.21496582 3.0984497 -0.6449127 4.002777c-0.56336975 1.1711884 -1.445488 2.0952759 -2.6463623 2.772293c-1.2008667 0.67207336 -2.5722275 1.0081177 -4.11409 1.0081177c-1.5566788 0 -2.7402573 -0.35580444 -3.5507202 -1.0674133c-0.8055191 -0.7116089 -1.2082825 -1.60112 -1.2082825 -2.668518c0 -0.69677734 0.18532562 -1.3293304 0.5559616 -1.8976135c0.370636 -0.5732422 0.89694214 -1.0081177 1.5789185 -1.3046112c0.6819763 -0.2965088 1.845787 -0.5633545 3.491417 -0.8005676c2.9058151 -0.4151001 5.085167 -0.91915894 6.5380707 -1.5121613zm-5.092575 -12.29744c-2.031105 0 -3.8175812 0.27920532 -5.359436 0.83761597c-1.5418625 0.55348206 -2.7204895 1.3466187 -3.5358963 2.3794403c-0.8154068 1.0278778 -1.4010162 2.379425 -1.7568283 4.0546722l3.913948 0.53370667c0.42993927 -1.6752472 1.0921478 -2.8414917 1.9866257 -3.4987335c0.89941406 -0.66218567 2.2905426 -0.99328613 4.1733856 -0.99328613c2.0162811 0 3.5358963 0.4521637 4.558861 1.3565063c0.7561035 0.6671295 1.1341553 1.8160706 1.1341553 3.4468384c0 0.1482544 -0.0074157715 0.49664307 -0.022239685 1.045166c-1.527031 0.53370667 -3.9065323 0.99328613 -7.138504 1.3787384c-1.5863342 0.19273376 -2.772377 0.39286804 -3.5581284 0.6004181c-1.0674438 0.2965088 -2.028633 0.73384094 -2.8835754 1.312027c-0.8499985 0.5781708 -1.5393829 1.3466187 -2.068161 2.3052979c-0.5238342 0.9537506 -0.78575134 2.0088043 -0.78575134 3.1651764c0 1.9717407 0.69680023 3.5926208 2.0904007 4.8626404c1.3936005 1.2650757 3.3876343 1.8976135 5.982109 1.8976135c1.5715103 0 3.04171 -0.2594452 4.4105988 -0.7783203c1.3738403 -0.5188751 2.8020325 -1.4083862 4.284584 -2.668518c0.11860657 1.1118774 0.38546753 2.0829163 0.8005829 2.9131317l4.180809 0c-0.5040741 -0.9043274 -0.84259033 -1.8482056 -1.0155563 -2.831604c-0.16802216 -0.9883423 -0.25202942 -3.3430634 -0.25202942 -7.064163l0 -5.3370514c0 -1.779007 -0.066719055 -3.009491 -0.20014954 -3.691452c-0.2372055 -1.0970612 -0.65232086 -2.0038605 -1.2453461 -2.7204132c-0.5930176 -0.7214813 -1.5196152 -1.3194427 -2.7797852 -1.7938385c-1.2601776 -0.474411 -2.8983994 -0.7116089 -4.914673 -0.7116089z" fill-rule="evenodd"/><path fill="#ffffff" d="m129.43947 186.6955l0 4.603195l4.002899 0l0 -4.603195zm0 8.984024l0 23.616425l4.002899 0l0 -23.616425z" fill-rule="evenodd"/><path fill="#ffffff" d="m150.65485 195.14581c-3.2764587 0 -5.781967 1.2971954 -7.516556 3.8916016l0 -3.357895l-3.6026154 0l0 23.616425l4.002899 0l0 -12.897858c0 -3.0243225 0.6177368 -5.077606 1.8531952 -6.159836c1.2404022 -1.0822449 2.7130737 -1.623352 4.4180145 -1.623352c1.0674438 0 1.9965057 0.24214172 2.787201 0.7264252c0.79563904 0.47935486 1.3491211 1.1242371 1.6604614 1.9346771c0.31134033 0.8054962 0.4670105 2.0236359 0.4670105 3.6544037l0 14.36554l4.002899 0l0 -14.52121c0 -1.8531342 -0.0741272 -3.1503448 -0.22238159 -3.8916016c-0.23721313 -1.1415253 -0.6523285 -2.1273956 -1.2453461 -2.957611c-0.59303284 -0.8302002 -1.487503 -1.4998016 -2.683426 -2.0088043c-1.1909943 -0.5139313 -2.498108 -0.77090454 -3.9213562 -0.77090454z" fill-rule="evenodd"/><path fill="#ffffff" d="m162.59682 195.67952l8.962051 23.660904c-0.16308594 0.42991638 -0.2816925 0.756073 -0.3558197 0.9784546c-0.56336975 1.5862885 -0.97106934 2.5795746 -1.2230988 2.9798431c-0.34098816 0.53370667 -0.77835083 0.94880676 -1.3120575 1.2453156c-0.5337219 0.2965088 -1.2453461 0.44474792 -2.1348877 0.44474792c-0.6523285 0 -1.4158325 -0.11859131 -2.2905426 -0.35578918l0 0l0.44476318 3.7581635c0.9488373 0.32615662 1.8087158 0.4892273 2.5796509 0.4892273c1.2749939 0 2.3720856 -0.30885315 3.291275 -0.9265747c0.9191742 -0.61276245 1.7345886 -1.5788727 2.4462128 -2.8983002c0.5337219 -0.97846985 1.2824097 -2.7648926 2.2460632 -5.3592834l8.984283 -24.016708l-4.002899 0l-5.0480957 13.765121c-0.63749695 1.7493744 -1.1860504 3.543213 -1.6456299 5.381531c-0.5040741 -1.9124451 -1.0748596 -3.7359314 -1.7123566 -5.4704742l-4.914673 -13.676178z" fill-rule="evenodd"/><path fill="#6d9eeb" d="m78.06562 71.821526l0 0c0 -9.532352 7.7274933 -17.259846 17.259842 -17.259846q13.590569 0 27.181145 -9.921303q-9.921303 13.590572 -9.921303 27.181149l0 0c0 9.532341 -7.727501 17.259842 -17.259842 17.259842l0 0c-9.532349 0 -17.259842 -7.727501 -17.259842 -17.259842z" fill-rule="evenodd"/><path fill="#6d9eeb" d="m71.98688 128.0l0 0c0 -12.889542 10.449036 -23.338585 23.338585 -23.338585q18.37703 0 36.754066 -13.415482q-13.415489 18.37703 -13.415489 36.754066l0 0c0 12.889542 -10.449036 23.338577 -23.338577 23.338577l0 0c-12.889549 0 -23.338585 -10.449036 -23.338585 -23.338577z" fill-rule="evenodd"/><path fill="#6d9eeb" d="m130.96063 119.91863l0 0c0 -9.532349 7.7274933 -17.259842 17.259842 -17.259842q13.590576 0 27.181137 -9.921303q-9.921295 13.590576 -9.921295 27.181145l0 0c0 9.532356 -7.7274933 17.25985 -17.259842 17.25985l0 0c-9.532349 0 -17.259842 -7.7274933 -17.259842 -17.25985z" fill-rule="evenodd"/><path fill="#6d9eeb" d="m135.36482 59.333332l0 0c0 -9.532345 7.7275085 -17.259842 17.259842 -17.259842q13.590576 0 27.181152 -9.921303q-9.921295 13.590572 -9.921295 27.181145l0 0c0 9.532352 -7.7275085 17.259846 -17.259857 17.259846l0 0c-9.532333 0 -17.259842 -7.7274933 -17.259842 -17.259846z" fill-rule="evenodd"/></g></svg>