<svg version="1.1" viewBox="0.0 0.0 256.0 256.0" fill="none" stroke="none" stroke-linecap="square" stroke-miterlimit="10" xmlns:xlink="http://www.w3.org/1999/xlink" xmlns="http://www.w3.org/2000/svg"><clipPath id="p.0"><path d="m0 0l256.0 0l0 256.0l-256.0 0l0 -256.0z" clip-rule="nonzero"/></clipPath><g clip-path="url(#p.0)"><defs><linearGradient id="p.1" gradientUnits="userSpaceOnUse" gradientTransform="matrix(16.00002895994655 0.0 0.0 16.00002895994655 0.0 0.0)" spreadMethod="pad" x1="2.0966886484626874E-10" y1="-5.791973584830732E-5" x2="-5.791973584830732E-5" y2="15.999971040105867"><stop offset="0.0" stop-color="#041336"/><stop offset="1.0" stop-color="#072364"/></linearGradient></defs><path fill="url(#p.1)" d="m0 0l256.0 0l0 256.0l-256.0 0z" fill-rule="evenodd"/><path fill="#ffffff" d="m73.58899 187.42778c-2.1941833 0 -4.188217 0.37062073 -5.982109 1.1118774c-1.7938919 0.7412567 -3.1578445 1.8284302 -4.091854 3.2615356c-0.93400955 1.4281464 -1.4010124 2.9650269 -1.4010124 4.610611c0 1.4973297 0.38051987 2.8513641 1.1415672 4.062088c0.7659874 1.2057648 1.9273186 2.2163544 3.484005 3.0317383c1.2008667 0.6374817 3.2986832 1.3169556 6.2934494 2.0384521c2.9947586 0.71655273 4.929489 1.2453003 5.804199 1.5862885c1.3639526 0.5188751 2.3424377 1.1613007 2.935463 1.9272614c0.5930176 0.76101685 0.889534 1.6529999 0.889534 2.6759338c0 1.0081177 -0.3088684 1.939621 -0.9265976 2.7945404c-0.61279297 0.8499756 -1.5492706 1.519577 -2.8094482 2.0088043c-1.26017 0.4892273 -2.7130737 0.73384094 -4.3587112 0.73384094c-1.8531952 0 -3.5210648 -0.32121277 -5.003624 -0.9636383c-1.4825516 -0.6473541 -2.5771713 -1.4923859 -3.2838593 -2.5350952c-0.7017441 -1.0476379 -1.1489792 -2.3868408 -1.341713 -4.0176086l-4.0696106 0.35580444c0.05929947 2.1792908 0.6547928 4.1337433 1.7864761 5.8633423c1.1366234 1.7246552 2.7007217 3.0169067 4.6922913 3.87677c1.9965057 0.8598633 4.469902 1.2897797 7.420189 1.2897797c2.3276062 0 4.4204865 -0.4249878 6.278618 -1.2749634c1.8630829 -0.8549042 3.291275 -2.0483246 4.284584 -3.5802612c0.99331665 -1.5368652 1.4899673 -3.172577 1.4899673 -4.9071198c0 -1.7493591 -0.45217896 -3.2936401 -1.3565369 -4.632843c-0.9043579 -1.3441467 -2.3053741 -2.4535675 -4.203041 -3.328247c-1.3046494 -0.5930023 -3.7113342 -1.2848358 -7.220047 -2.0755157c-3.503769 -0.7956085 -5.6707687 -1.5714569 -6.501007 -2.3275452c-0.8450546 -0.756073 -1.2675781 -1.7197113 -1.2675781 -2.8908997c0 -1.3490906 0.5954895 -2.5005035 1.7864761 -3.4542542c1.1959305 -0.95869446 3.0985413 -1.438034 5.70784 -1.438034c2.505516 0 4.398247 0.5262909 5.6781845 1.5788727c1.2848816 1.0525818 2.0385132 2.6092224 2.2608948 4.669922l4.1363297 -0.31134033c-0.0741272 -1.9124298 -0.6078491 -3.6247406 -1.6011581 -5.136902c-0.993309 -1.5121613 -2.414093 -2.6561584 -4.2623444 -3.4320068c-1.8433151 -0.78079224 -3.9732513 -1.1711884 -6.3898163 -1.1711884z" fill-rule="evenodd"/><path fill="#ffffff" d="m103.32163 196.43404c-3.2764435 0 -5.7819595 1.2971954 -7.516556 3.8916016l0 -3.357895l-3.6026077 0l0 23.616425l4.002899 0l0 -12.897858c0 -3.0243225 0.6177292 -5.077606 1.8531952 -6.159836c1.2404022 -1.0822296 2.7130737 -1.623352 4.4180145 -1.623352c1.0674438 0 1.9965057 0.24214172 2.787201 0.7264252c0.79563904 0.47935486 1.3491287 1.1242371 1.6604614 1.9346771c0.31134033 0.8055115 0.4670105 2.0236359 0.4670105 3.6544037l0 14.36554l4.002899 0l0 -14.52121c0 -1.8531342 -0.0741272 -3.1503448 -0.22238159 -3.8915863c-0.23721313 -1.1415405 -0.6523285 -2.127411 -1.2453537 -2.9576263c-0.5930176 -0.8302002 -1.4874954 -1.4998016 -2.6834183 -2.0088043c-1.1909866 -0.5139313 -2.498108 -0.77090454 -3.9213638 -0.77090454z" fill-rule="evenodd"/><path fill="#ffffff" d="m127.116646 199.74745c1.9717941 0 3.6199112 0.75361633 4.9443283 2.2608337c1.3293457 1.5022888 1.9940338 3.7136993 1.9940338 6.634247c0 3.0984497 -0.65974426 5.403763 -1.9792175 6.915924c-1.3194733 1.5121613 -2.972519 2.2682343 -4.9591446 2.2682343c-2.0014496 0 -3.661911 -0.75112915 -4.9813843 -2.253418c-1.3194733 -1.5072174 -1.9792099 -3.772995 -1.9792099 -6.7973175c0 -3.0243225 0.65973663 -5.2851562 1.9792099 -6.782486c1.3194733 -1.497345 2.9799347 -2.2460175 4.9813843 -2.2460175zm0 -3.3134155c-2.9206314 0 -5.3964996 0.87467957 -7.4276047 2.624054c-2.4313889 2.1051636 -3.6470795 5.344452 -3.6470795 9.717865c0 3.9879608 1.0180206 7.041931 3.054062 9.161926c2.040985 2.119995 4.7145233 3.1799927 8.020622 3.1799927c2.0607529 0 3.9608994 -0.48181152 5.700432 -1.4454498c1.744461 -0.9636383 3.07135 -2.3151855 3.9806519 -4.0546722c0.9142456 -1.7444305 1.3713684 -4.136215 1.3713684 -7.175354c0 -3.750763 -1.0303802 -6.688614 -3.0911255 -8.813538c-2.0607605 -2.1298828 -4.7145233 -3.1948242 -7.9613266 -3.1948242z" fill-rule="evenodd"/><path fill="#ffffff" d="m139.99265 196.96774l7.2274475 23.616425l4.1808014 0l4.78125 -18.168182l0.9117737 4.025009l3.7582703 14.143173l4.1585693 0l7.3831177 -23.616425l-3.8917084 0l-4.0473633 13.653946l-1.3565369 4.558716l-1.1786346 -4.5142517l-3.535904 -13.69841l-4.11409 0l-3.7582703 13.831848c-0.7561035 2.9946747 -1.1638031 4.6180267 -1.223114 4.870056l-1.4010162 -5.0702057l-3.7582703 -13.631699z" fill-rule="evenodd"/><path fill="#ffffff" d="m173.48357 196.96774l8.962036 23.660904c-0.16307068 0.42993164 -0.28167725 0.756073 -0.35580444 0.9784546c-0.56336975 1.5862885 -0.9710846 2.5795746 -1.223114 2.9798584c-0.34098816 0.5336914 -0.7783356 0.94880676 -1.3120575 1.2453003c-0.5337219 0.2965088 -1.2453461 0.44476318 -2.1348877 0.44476318c-0.65231323 0 -1.4158325 -0.11860657 -2.2905426 -0.35580444l0 0l0.44476318 3.7581635c0.9488373 0.32615662 1.8087158 0.4892273 2.5796509 0.4892273c1.2749939 0 2.3720856 -0.30885315 3.291275 -0.9265747c0.9191742 -0.61276245 1.7345886 -1.5788727 2.4462128 -2.8983002c0.5337219 -0.97846985 1.2824097 -2.7648926 2.2460632 -5.3592834l8.984299 -24.016708l-4.002899 0l-5.048111 13.765137c-0.63749695 1.7493591 -1.1860352 3.5431976 -1.6456299 5.3815155c-0.5040741 -1.9124451 -1.0748596 -3.7359314 -1.7123566 -5.4704742l-4.914673 -13.676178z" fill-rule="evenodd"/><path fill="#ffffff" d="m98.31518 91.5456l12.921265 -25.842506l33.84252 0l12.921249 25.842506l-12.921249 25.842514l-33.84252 0z" fill-rule="evenodd"/><path stroke="#ffffff" stroke-width="8.0" stroke-linejoin="round" stroke-linecap="butt" d="m98.31518 91.5456l12.921265 -25.842506l33.84252 0l12.921249 25.842506l-12.921249 25.842514l-33.84252 0z" fill-rule="evenodd"/><path fill="#000000" fill-opacity="0.0" d="m158.00021 91.5456l27.84253 0" fill-rule="evenodd"/><path stroke="#ffffff" stroke-width="8.0" stroke-linejoin="round" stroke-linecap="butt" d="m158.00021 91.5456l27.84253 0" fill-rule="evenodd"/><path fill="#ffffff" d="m185.85547 87.64793l6.740158 3.90551l-6.740158 3.9055176z" fill-rule="evenodd"/><path fill="#000000" fill-opacity="0.0" d="m145.06496 65.702446l13.952759 -24.125988" fill-rule="evenodd"/><path stroke="#ffffff" stroke-width="8.0" stroke-linejoin="round" stroke-linecap="butt" d="m145.06496 65.702446l13.952759 -24.125988" fill-rule="evenodd"/><path fill="#ffffff" d="m155.61899 39.648354l6.755905 -3.9055138l0.01574707 7.8110237z" fill-rule="evenodd"/><path fill="#000000" fill-opacity="0.0" d="m145.07726 117.388885l13.952759 24.125977" fill-rule="evenodd"/><path stroke="#ffffff" stroke-width="8.0" stroke-linejoin="round" stroke-linecap="butt" d="m145.07726 117.388885l13.952759 24.125977" fill-rule="evenodd"/><path fill="#ffffff" d="m162.38216 139.54538l-0.01574707 7.81102l-6.755905 -3.9055176z" fill-rule="evenodd"/><path fill="#000000" fill-opacity="0.0" d="m111.251816 117.38875l-13.952759 24.125992" fill-rule="evenodd"/><path stroke="#ffffff" stroke-width="8.0" stroke-linejoin="round" stroke-linecap="butt" d="m111.251816 117.38875l-13.952759 24.125992" fill-rule="evenodd"/><path fill="#ffffff" d="m100.697784 143.44284l-6.755905 3.9055176l-0.01574707 -7.811035z" fill-rule="evenodd"/><path fill="#000000" fill-opacity="0.0" d="m111.2518 65.71424l-13.574799 -24.125988" fill-rule="evenodd"/><path stroke="#ffffff" stroke-width="8.0" stroke-linejoin="round" stroke-linecap="butt" d="m111.2518 65.71424l-13.574799 -24.125988" fill-rule="evenodd"/><path fill="#ffffff" d="m100.96123 39.660328l-6.5669327 -3.9055138l-0.01574707 7.8110237z" fill-rule="evenodd"/><path fill="#000000" fill-opacity="0.0" d="m98.318924 91.53994l-27.244095 0" fill-rule="evenodd"/><path stroke="#ffffff" stroke-width="8.0" stroke-linejoin="round" stroke-linecap="butt" d="m98.318924 91.53994l-27.244095 0" fill-rule="evenodd"/><path fill="#ffffff" d="m71.06281 87.64234l-6.582672 3.90551l6.582672 3.9055176z" fill-rule="evenodd"/></g></svg>