<svg version="1.1" viewBox="0.0 0.0 256.0 256.0" fill="none" stroke="none" stroke-linecap="square" stroke-miterlimit="10" xmlns:xlink="http://www.w3.org/1999/xlink" xmlns="http://www.w3.org/2000/svg"><clipPath id="p.0"><path d="m0 0l256.0 0l0 256.0l-256.0 0l0 -256.0z" clip-rule="nonzero"/></clipPath><g clip-path="url(#p.0)"><defs><linearGradient id="p.1" gradientUnits="userSpaceOnUse" gradientTransform="matrix(16.00002895994655 0.0 0.0 16.00002895994655 0.0 0.0)" spreadMethod="pad" x1="2.0966886484626874E-10" y1="-5.791973584830732E-5" x2="-5.791973584830732E-5" y2="15.999971040105867"><stop offset="0.0" stop-color="#041336"/><stop offset="1.0" stop-color="#072364"/></linearGradient></defs><path fill="url(#p.1)" d="m0 0l256.0 0l0 256.0l-256.0 0z" fill-rule="evenodd"/><path fill="#ff9900" d="m188.97638 96.603676l-22.445755 9.645668l0 -19.291336zm-17.863815 -43.118206l-9.047852 22.694347l-13.640854 -13.640854zm-43.112564 -17.858173l9.645676 22.445759l-19.291344 0zm-43.118202 17.858173l22.694344 9.0534935l-13.640854 13.640854zm-17.858177 43.118206l22.445763 -9.645668l0 19.291336zm17.858177 43.112556l9.05349 -22.688705l13.640854 13.640854zm43.118202 17.863815l-9.645668 -22.445755l19.291344 0zm43.112564 -17.863815l-22.688705 -9.047852l13.640854 -13.640854zm-76.719086 -43.112556l0 0c0 -18.560371 15.04615 -33.60652 33.60652 -33.60652c18.560364 0 33.60652 15.04615 33.60652 33.60652c0 18.560371 -15.046158 33.606514 -33.60652 33.606514c-18.560371 0 -33.60652 -15.046143 -33.60652 -33.606514z" fill-rule="evenodd"/><path fill="#ffff00" d="m88.32546 96.59843l0 0c0 -21.908745 17.760544 -39.669292 39.66929 -39.669292l0 0c10.52095 0 20.610992 4.179432 28.05043 11.618862c7.4394226 7.439438 11.618866 17.52948 11.618866 28.05043l0 0c0 21.908745 -17.76056 39.66929 -39.669296 39.66929l0 0c-21.908745 0 -39.66929 -17.760544 -39.66929 -39.66929z" fill-rule="evenodd"/><path fill="#ffffff" d="m77.363266 187.06294c-2.1941757 0 -4.188217 0.370636 -5.982109 1.1118927c-1.7938919 0.7412567 -3.1578445 1.8284302 -4.0918503 3.2615204c-0.93401337 1.4281616 -1.4010162 2.9650269 -1.4010162 4.610611c0 1.497345 0.38052368 2.8513794 1.141571 4.062088c0.7659836 1.20578 1.9273224 2.2163544 3.4840012 3.0317383c1.2008743 0.6374817 3.2986832 1.3169708 6.2934494 2.0384521c2.9947586 0.71655273 4.929497 1.2453156 5.804199 1.5862885c1.3639526 0.5188904 2.3424377 1.1613007 2.935463 1.9272766c0.5930176 0.76101685 0.889534 1.6529999 0.889534 2.6759338c0 1.0081024 -0.3088684 1.939621 -0.9265976 2.7945251c-0.61279297 0.8499756 -1.5492706 1.519577 -2.8094406 2.0088043c-1.2601776 0.48924255 -2.7130814 0.7338562 -4.358719 0.7338562c-1.8531876 0 -3.5210648 -0.32121277 -5.0036163 -0.9636383c-1.4825592 -0.6473694 -2.577179 -1.4924011 -3.283867 -2.5350952c-0.70173645 -1.0476379 -1.1489792 -2.3868408 -1.3417053 -4.0176086l-4.069618 0.35580444c0.059303284 2.1792908 0.6547928 4.133728 1.7864761 5.863327c1.1366272 1.7246552 2.7007294 3.016922 4.6922913 3.87677c1.9965057 0.8598633 4.469902 1.2897949 7.420189 1.2897949c2.3276138 0 4.4204865 -0.4249878 6.278618 -1.2749634c1.8630829 -0.85491943 3.291275 -2.0483398 4.284584 -3.5802612c0.99331665 -1.5368805 1.4899673 -3.172577 1.4899673 -4.9071198c0 -1.7493744 -0.45217896 -3.2936554 -1.3565369 -4.6328583c-0.9043579 -1.3441467 -2.3053741 -2.4535522 -4.203041 -3.3282318c-1.3046494 -0.5930023 -3.7113266 -1.2848511 -7.220047 -2.0755157c-3.503769 -0.7956238 -5.6707687 -1.5714722 -6.5009995 -2.3275452c-0.84506226 -0.75608826 -1.2675858 -1.7197266 -1.2675858 -2.8908997c0 -1.3490906 0.5954895 -2.5005035 1.7864761 -3.4542542c1.1959305 -0.95869446 3.0985413 -1.4380493 5.70784 -1.4380493c2.505516 0 4.398247 0.52630615 5.6781845 1.5788879c1.2848816 1.0525818 2.0385132 2.6092224 2.2608948 4.6699066l4.1363297 -0.31132507c-0.0741272 -1.9124451 -0.6078415 -3.6247406 -1.6011581 -5.136902c-0.993309 -1.5121613 -2.414093 -2.6561737 -4.2623444 -3.432022c-1.8433075 -0.78079224 -3.9732513 -1.1711884 -6.3898163 -1.1711884z" fill-rule="evenodd"/><path fill="#ffffff" d="m95.887794 196.60292l0 14.6324005c0 1.7048798 0.08154297 2.9501953 0.24462128 3.7359314c0.23721313 1.1711731 0.64738464 2.1619873 1.2305222 2.9724274c0.58808136 0.8054962 1.4850235 1.4750977 2.6908417 2.0088043c1.2107468 0.53370667 2.5129242 0.80055237 3.9065323 0.80055237c3.157837 0 5.655945 -1.334259 7.494316 -4.002777l0 3.4690857l3.580368 0l0 -23.616425l-4.002899 0l0 12.653244c0 2.0162048 -0.21990967 3.5555573 -0.65973663 4.6180267c-0.43488312 1.0575256 -1.1786346 1.8951416 -2.231247 2.512848c-1.0526123 0.6127777 -2.1793518 0.91915894 -3.3802261 0.91915894c-1.2008667 0 -2.2090073 -0.29896545 -3.024414 -0.8969116c-0.81539917 -0.60289 -1.3491211 -1.4306335 -1.6011581 -2.4832153c-0.16307831 -0.7264252 -0.24462128 -2.1348114 -0.24462128 -4.2251587l0 -13.097992z" fill-rule="evenodd"/><path fill="#ffffff" d="m132.42537 196.06921c-3.2764435 0 -5.781967 1.2971954 -7.516556 3.8915863l0 -3.3578796l-3.6026077 0l0 23.616425l4.002899 0l0 -12.897858c0 -3.0243378 0.6177292 -5.077606 1.8531952 -6.159851c1.2403946 -1.0822296 2.713066 -1.623352 4.418007 -1.623352c1.0674438 0 1.9965057 0.24215698 2.7872162 0.7264404c0.7956238 0.4793396 1.3491211 1.1242371 1.6604614 1.9346771c0.31132507 0.8054962 0.46699524 2.0236206 0.46699524 3.6543884l0 14.365555l4.002899 0l0 -14.52121c0 -1.8531494 -0.0741272 -3.1503448 -0.22238159 -3.8916016c-0.23721313 -1.1415405 -0.6523285 -2.127411 -1.2453461 -2.957611c-0.5930176 -0.8302002 -1.487503 -1.4998016 -2.683426 -2.0088043c-1.190979 -0.5139313 -2.498108 -0.77090454 -3.9213562 -0.77090454z" fill-rule="evenodd"/><path fill="#ffffff" d="m157.75482 196.06921c-3.2764435 0 -5.781967 1.2971954 -7.516556 3.8915863l0 -3.3578796l-3.6026 0l0 23.616425l4.002899 0l0 -12.897858c0 -3.0243378 0.61772156 -5.077606 1.8531952 -6.159851c1.2404022 -1.0822296 2.7130737 -1.623352 4.4180145 -1.623352c1.0674286 0 1.9965057 0.24215698 2.787201 0.7264404c0.79563904 0.4793396 1.3491211 1.1242371 1.6604614 1.9346771c0.31134033 0.8054962 0.46699524 2.0236206 0.46699524 3.6543884l0 14.365555l4.002899 0l0 -14.52121c0 -1.8531494 -0.0741272 -3.1503448 -0.22238159 -3.8916016c-0.23719788 -1.1415405 -0.65231323 -2.127411 -1.2453461 -2.957611c-0.5930176 -0.8302002 -1.4874878 -1.4998016 -2.683426 -2.0088043c-1.190979 -0.5139313 -2.498108 -0.77090454 -3.9213562 -0.77090454z" fill-rule="evenodd"/><path fill="#ffffff" d="m169.69681 196.60292l8.962051 23.660889c-0.16308594 0.42993164 -0.2816925 0.75608826 -0.3558197 0.97846985c-0.56336975 1.5862885 -0.97106934 2.5795593 -1.223114 2.9798431c-0.34098816 0.53370667 -0.7783356 0.94880676 -1.3120575 1.2453156c-0.5337219 0.29649353 -1.2453461 0.44474792 -2.1348724 0.44474792c-0.6523285 0 -1.4158478 -0.11860657 -2.2905579 -0.35580444l0 0l0.44477844 3.7581787c0.948822 0.32614136 1.8087158 0.4892273 2.5796356 0.4892273c1.2749939 0 2.3720856 -0.30885315 3.291275 -0.9265747c0.91918945 -0.6127777 1.7345886 -1.5788727 2.4462128 -2.8983154c0.5337219 -0.9784546 1.2824097 -2.7648773 2.2460785 -5.3592834l8.984283 -24.016693l-4.002899 0l-5.0480957 13.765121c-0.6375122 1.7493744 -1.1860504 3.543213 -1.6456451 5.3815155c-0.50405884 -1.9124298 -1.0748444 -3.7359314 -1.7123413 -5.470459l-4.914673 -13.676178z" fill-rule="evenodd"/></g></svg>